<?xml version="1.0" encoding="UTF-8" standalone="no"?><svg xmlns="http://www.w3.org/2000/svg" xmlns:xlink="http://www.w3.org/1999/xlink" contentScriptType="application/ecmascript" contentStyleType="text/css" height="645px" preserveAspectRatio="none" style="width:857px;height:645px;" version="1.1" viewBox="0 0 857 645" width="857px" zoomAndPan="magnify"><defs><filter height="300%" id="ffgfe56bc5zop" width="300%" x="-1" y="-1"><feGaussianBlur result="blurOut" stdDeviation="2.0"/><feColorMatrix in="blurOut" result="blurOut2" type="matrix" values="0 0 0 0 0 0 0 0 0 0 0 0 0 0 0 0 0 0 .4 0"/><feOffset dx="4.0" dy="4.0" in="blurOut2" result="blurOut3"/><feBlend in="SourceGraphic" in2="blurOut3" mode="normal"/></filter></defs><g><rect fill="#FFFFFF" filter="url(#ffgfe56bc5zop)" height="166.7578" style="stroke: #A80036; stroke-width: 1.0;" width="10" x="454" y="69.2188"/><rect fill="#FFFFFF" filter="url(#ffgfe56bc5zop)" height="151.4063" style="stroke: #A80036; stroke-width: 1.0;" width="10" x="454" y="478.4375"/><rect fill="#FFFFFF" filter="url(#ffgfe56bc5zop)" height="272.8125" style="stroke: #FFFFFF; stroke-width: 1.0;" width="10" x="576" y="69.2188"/><line style="stroke: #A80036; stroke-width: 1.0;" x1="576" x2="576" y1="69.2188" y2="342.0313"/><line style="stroke: #A80036; stroke-width: 1.0;" x1="586" x2="586" y1="69.2188" y2="342.0313"/><line style="stroke: #A80036; stroke-width: 1.0;" x1="576" x2="586" y1="69.2188" y2="69.2188"/><rect fill="#FFFFFF" filter="url(#ffgfe56bc5zop)" height="259.8125" style="stroke: #FFFFFF; stroke-width: 1.0;" width="10" x="576" y="370.0313"/><line style="stroke: #A80036; stroke-width: 1.0;" x1="576" x2="576" y1="370.0313" y2="629.8438"/><line style="stroke: #A80036; stroke-width: 1.0;" x1="586" x2="586" y1="370.0313" y2="629.8438"/><line style="stroke: #A80036; stroke-width: 1.0;" x1="576" x2="586" y1="629.8438" y2="629.8438"/><rect fill="#FFFFFF" filter="url(#ffgfe56bc5zop)" height="227.4609" style="stroke: #A80036; stroke-width: 1.0;" width="10" x="695" y="69.2188"/><rect fill="#FFFFFF" filter="url(#ffgfe56bc5zop)" height="76.7031" style="stroke: #A80036; stroke-width: 1.0;" width="10" x="695" y="553.1406"/><rect fill="#FFFFFF" filter="url(#ffgfe56bc5zop)" height="272.8125" style="stroke: #FFFFFF; stroke-width: 1.0;" width="10" x="790.5" y="69.2188"/><line style="stroke: #A80036; stroke-width: 1.0;" x1="790.5" x2="790.5" y1="69.2188" y2="342.0313"/><line style="stroke: #A80036; stroke-width: 1.0;" x1="800.5" x2="800.5" y1="69.2188" y2="342.0313"/><line style="stroke: #A80036; stroke-width: 1.0;" x1="790.5" x2="800.5" y1="69.2188" y2="69.2188"/><rect fill="#FFFFFF" filter="url(#ffgfe56bc5zop)" height="259.8125" style="stroke: #FFFFFF; stroke-width: 1.0;" width="10" x="790.5" y="370.0313"/><line style="stroke: #A80036; stroke-width: 1.0;" x1="790.5" x2="790.5" y1="370.0313" y2="629.8438"/><line style="stroke: #A80036; stroke-width: 1.0;" x1="800.5" x2="800.5" y1="370.0313" y2="629.8438"/><line style="stroke: #A80036; stroke-width: 1.0;" x1="790.5" x2="800.5" y1="629.8438" y2="629.8438"/><rect fill="#FFFFFF" filter="url(#ffgfe56bc5zop)" height="170.1094" style="stroke: #000000; stroke-width: 2.0;" width="631.5" x="212" y="134.5703"/><rect fill="#FFFFFF" filter="url(#ffgfe56bc5zop)" height="184.1094" style="stroke: #000000; stroke-width: 2.0;" width="631.5" x="212" y="407.3828"/><line style="stroke: #A80036; stroke-width: 1.0;" x1="277" x2="277" y1="59.2188" y2="69.2188"/><line style="stroke: #A80036; stroke-width: 1.0; stroke-dasharray: 1.0,4.0;" x1="277" x2="277" y1="69.2188" y2="97.2188"/><line style="stroke: #A80036; stroke-width: 1.0;" x1="277" x2="277" y1="97.2188" y2="342.0313"/><line style="stroke: #A80036; stroke-width: 1.0; stroke-dasharray: 1.0,4.0;" x1="277" x2="277" y1="342.0313" y2="370.0313"/><line style="stroke: #A80036; stroke-width: 1.0;" x1="277" x2="277" y1="370.0313" y2="638.8438"/><line style="stroke: #A80036; stroke-width: 1.0;" x1="458.5" x2="458.5" y1="59.2188" y2="69.2188"/><line style="stroke: #A80036; stroke-width: 1.0; stroke-dasharray: 1.0,4.0;" x1="458.5" x2="458.5" y1="69.2188" y2="97.2188"/><line style="stroke: #A80036; stroke-width: 1.0;" x1="458.5" x2="458.5" y1="97.2188" y2="342.0313"/><line style="stroke: #A80036; stroke-width: 1.0; stroke-dasharray: 1.0,4.0;" x1="458.5" x2="458.5" y1="342.0313" y2="370.0313"/><line style="stroke: #A80036; stroke-width: 1.0;" x1="458.5" x2="458.5" y1="370.0313" y2="638.8438"/><line style="stroke: #A80036; stroke-width: 1.0;" x1="580.5" x2="580.5" y1="59.2188" y2="69.2188"/><line style="stroke: #A80036; stroke-width: 1.0; stroke-dasharray: 1.0,4.0;" x1="580.5" x2="580.5" y1="69.2188" y2="97.2188"/><line style="stroke: #A80036; stroke-width: 1.0;" x1="580.5" x2="580.5" y1="97.2188" y2="342.0313"/><line style="stroke: #A80036; stroke-width: 1.0; stroke-dasharray: 1.0,4.0;" x1="580.5" x2="580.5" y1="342.0313" y2="370.0313"/><line style="stroke: #A80036; stroke-width: 1.0;" x1="580.5" x2="580.5" y1="370.0313" y2="638.8438"/><line style="stroke: #A80036; stroke-width: 1.0;" x1="699.5" x2="699.5" y1="59.2188" y2="69.2188"/><line style="stroke: #A80036; stroke-width: 1.0; stroke-dasharray: 1.0,4.0;" x1="699.5" x2="699.5" y1="69.2188" y2="97.2188"/><line style="stroke: #A80036; stroke-width: 1.0;" x1="699.5" x2="699.5" y1="97.2188" y2="342.0313"/><line style="stroke: #A80036; stroke-width: 1.0; stroke-dasharray: 1.0,4.0;" x1="699.5" x2="699.5" y1="342.0313" y2="370.0313"/><line style="stroke: #A80036; stroke-width: 1.0;" x1="699.5" x2="699.5" y1="370.0313" y2="638.8438"/><line style="stroke: #A80036; stroke-width: 1.0;" x1="795.5" x2="795.5" y1="59.2188" y2="69.2188"/><line style="stroke: #A80036; stroke-width: 1.0; stroke-dasharray: 1.0,4.0;" x1="795.5" x2="795.5" y1="69.2188" y2="97.2188"/><line style="stroke: #A80036; stroke-width: 1.0;" x1="795.5" x2="795.5" y1="97.2188" y2="342.0313"/><line style="stroke: #A80036; stroke-width: 1.0; stroke-dasharray: 1.0,4.0;" x1="795.5" x2="795.5" y1="342.0313" y2="370.0313"/><line style="stroke: #A80036; stroke-width: 1.0;" x1="795.5" x2="795.5" y1="370.0313" y2="638.8438"/><rect fill="#FEFECE" filter="url(#ffgfe56bc5zop)" height="31.6094" style="stroke: #A80036; stroke-width: 1.5;" width="106" x="222" y="22.6094"/><text fill="#000000" font-family="sans-serif" font-size="14" lengthAdjust="spacingAndGlyphs" textLength="92" x="229" y="44.1426">DataPresenter</text><rect fill="#FEFECE" filter="url(#ffgfe56bc5zop)" height="31.6094" style="stroke: #A80036; stroke-width: 1.5;" width="97" x="408.5" y="22.6094"/><text fill="#000000" font-family="sans-serif" font-size="14" lengthAdjust="spacingAndGlyphs" textLength="83" x="415.5" y="44.1426">DataProvider</text><rect fill="#FEFECE" filter="url(#ffgfe56bc5zop)" height="49.2188" style="stroke: #A80036; stroke-width: 1.5;" width="119" x="519.5" y="5"/><text fill="#000000" font-family="sans-serif" font-size="14" font-style="italic" lengthAdjust="spacingAndGlyphs" textLength="93" x="532.5" y="26.5332">«DataReader»</text><text fill="#000000" font-family="sans-serif" font-size="14" lengthAdjust="spacingAndGlyphs" textLength="105" x="526.5" y="44.1426">FactoryDelegate</text><rect fill="#FEFECE" filter="url(#ffgfe56bc5zop)" height="31.6094" style="stroke: #A80036; stroke-width: 1.5;" width="91" x="652.5" y="22.6094"/><text fill="#000000" font-family="sans-serif" font-size="14" lengthAdjust="spacingAndGlyphs" textLength="77" x="659.5" y="44.1426">DataReader</text><rect fill="#FEFECE" filter="url(#ffgfe56bc5zop)" height="31.6094" style="stroke: #A80036; stroke-width: 1.5;" width="72" x="757.5" y="22.6094"/><text fill="#000000" font-family="sans-serif" font-size="14" lengthAdjust="spacingAndGlyphs" textLength="58" x="764.5" y="44.1426">ESPlayer</text><rect fill="#FFFFFF" filter="url(#ffgfe56bc5zop)" height="166.7578" style="stroke: #A80036; stroke-width: 1.0;" width="10" x="454" y="69.2188"/><rect fill="#FFFFFF" filter="url(#ffgfe56bc5zop)" height="151.4063" style="stroke: #A80036; stroke-width: 1.0;" width="10" x="454" y="478.4375"/><rect fill="#FFFFFF" filter="url(#ffgfe56bc5zop)" height="272.8125" style="stroke: #FFFFFF; stroke-width: 1.0;" width="10" x="576" y="69.2188"/><line style="stroke: #A80036; stroke-width: 1.0;" x1="576" x2="576" y1="69.2188" y2="342.0313"/><line style="stroke: #A80036; stroke-width: 1.0;" x1="586" x2="586" y1="69.2188" y2="342.0313"/><line style="stroke: #A80036; stroke-width: 1.0;" x1="576" x2="586" y1="69.2188" y2="69.2188"/><rect fill="#FFFFFF" filter="url(#ffgfe56bc5zop)" height="259.8125" style="stroke: #FFFFFF; stroke-width: 1.0;" width="10" x="576" y="370.0313"/><line style="stroke: #A80036; stroke-width: 1.0;" x1="576" x2="576" y1="370.0313" y2="629.8438"/><line style="stroke: #A80036; stroke-width: 1.0;" x1="586" x2="586" y1="370.0313" y2="629.8438"/><line style="stroke: #A80036; stroke-width: 1.0;" x1="576" x2="586" y1="629.8438" y2="629.8438"/><rect fill="#FFFFFF" filter="url(#ffgfe56bc5zop)" height="227.4609" style="stroke: #A80036; stroke-width: 1.0;" width="10" x="695" y="69.2188"/><rect fill="#FFFFFF" filter="url(#ffgfe56bc5zop)" height="76.7031" style="stroke: #A80036; stroke-width: 1.0;" width="10" x="695" y="553.1406"/><rect fill="#FFFFFF" filter="url(#ffgfe56bc5zop)" height="272.8125" style="stroke: #FFFFFF; stroke-width: 1.0;" width="10" x="790.5" y="69.2188"/><line style="stroke: #A80036; stroke-width: 1.0;" x1="790.5" x2="790.5" y1="69.2188" y2="342.0313"/><line style="stroke: #A80036; stroke-width: 1.0;" x1="800.5" x2="800.5" y1="69.2188" y2="342.0313"/><line style="stroke: #A80036; stroke-width: 1.0;" x1="790.5" x2="800.5" y1="69.2188" y2="69.2188"/><rect fill="#FFFFFF" filter="url(#ffgfe56bc5zop)" height="259.8125" style="stroke: #FFFFFF; stroke-width: 1.0;" width="10" x="790.5" y="370.0313"/><line style="stroke: #A80036; stroke-width: 1.0;" x1="790.5" x2="790.5" y1="370.0313" y2="629.8438"/><line style="stroke: #A80036; stroke-width: 1.0;" x1="800.5" x2="800.5" y1="370.0313" y2="629.8438"/><line style="stroke: #A80036; stroke-width: 1.0;" x1="790.5" x2="800.5" y1="629.8438" y2="629.8438"/><polygon fill="#A80036" points="265,115.5703,275,119.5703,265,123.5703,269,119.5703" style="stroke: #A80036; stroke-width: 1.0;"/><line style="stroke: #A80036; stroke-width: 1.0;" x1="0" x2="271" y1="119.5703" y2="119.5703"/><text fill="#000000" font-family="sans-serif" font-size="13" lengthAdjust="spacingAndGlyphs" textLength="59" x="7" y="114.7139">Suspend()</text><path d="M212,134.5703 L272,134.5703 L272,142.5703 L262,152.5703 L212,152.5703 L212,134.5703 " fill="#EEEEEE" style="stroke: #000000; stroke-width: 1.0;"/><rect fill="none" height="170.1094" style="stroke: #000000; stroke-width: 2.0;" width="631.5" x="212" y="134.5703"/><text fill="#000000" font-family="sans-serif" font-size="13" font-weight="bold" lengthAdjust="spacingAndGlyphs" textLength="15" x="227" y="149.0654">alt</text><text fill="#000000" font-family="sans-serif" font-size="11" font-weight="bold" lengthAdjust="spacingAndGlyphs" textLength="152" x="287" y="147.9893">[_dataReaderSession != null]</text><polygon fill="#A80036" points="778.5,171.2734,788.5,175.2734,778.5,179.2734,782.5,175.2734" style="stroke: #A80036; stroke-width: 1.0;"/><line style="stroke: #A80036; stroke-width: 1.0;" x1="277" x2="784.5" y1="175.2734" y2="175.2734"/><text fill="#000000" font-family="sans-serif" font-size="13" lengthAdjust="spacingAndGlyphs" textLength="45" x="284" y="170.417">Pause()</text><polygon fill="#A80036" points="442,201.625,452,205.625,442,209.625,446,205.625" style="stroke: #A80036; stroke-width: 1.0;"/><line style="stroke: #A80036; stroke-width: 1.0;" x1="277" x2="448" y1="205.625" y2="205.625"/><text fill="#000000" font-family="sans-serif" font-size="13" lengthAdjust="spacingAndGlyphs" textLength="153" x="284" y="200.7686">suspendTask = Suspend()</text><polygon fill="#A80036" points="288,231.9766,278,235.9766,288,239.9766,284,235.9766" style="stroke: #A80036; stroke-width: 1.0;"/><line style="stroke: #A80036; stroke-width: 1.0; stroke-dasharray: 2.0,2.0;" x1="282" x2="458" y1="235.9766" y2="235.9766"/><text fill="#000000" font-family="sans-serif" font-size="13" lengthAdjust="spacingAndGlyphs" textLength="29" x="294" y="231.1201">Task</text><polygon fill="#A80036" points="683,262.3281,693,266.3281,683,270.3281,687,266.3281" style="stroke: #A80036; stroke-width: 1.0;"/><line style="stroke: #A80036; stroke-width: 1.0;" x1="277" x2="689" y1="266.3281" y2="266.3281"/><text fill="#000000" font-family="sans-serif" font-size="13" lengthAdjust="spacingAndGlyphs" textLength="182" x="284" y="261.4717">disposeTask = DisposeAsync()</text><polygon fill="#A80036" points="288,292.6797,278,296.6797,288,300.6797,284,296.6797" style="stroke: #A80036; stroke-width: 1.0;"/><line style="stroke: #A80036; stroke-width: 1.0; stroke-dasharray: 2.0,2.0;" x1="282" x2="699" y1="296.6797" y2="296.6797"/><text fill="#000000" font-family="sans-serif" font-size="13" lengthAdjust="spacingAndGlyphs" textLength="29" x="294" y="291.8232">Task</text><line style="stroke: #A80036; stroke-width: 2.0;" x1="691" x2="709" y1="287.6797" y2="305.6797"/><line style="stroke: #A80036; stroke-width: 2.0;" x1="691" x2="709" y1="305.6797" y2="287.6797"/><polygon fill="#A80036" points="11,330.0313,1,334.0313,11,338.0313,7,334.0313" style="stroke: #A80036; stroke-width: 1.0;"/><line style="stroke: #A80036; stroke-width: 1.0; stroke-dasharray: 2.0,2.0;" x1="5" x2="276" y1="334.0313" y2="334.0313"/><text fill="#000000" font-family="sans-serif" font-size="13" lengthAdjust="spacingAndGlyphs" textLength="253" x="17" y="329.1748">Task.WhenAll( suspendTask,disposeTask )</text><polygon fill="#A80036" points="265,388.3828,275,392.3828,265,396.3828,269,392.3828" style="stroke: #A80036; stroke-width: 1.0;"/><line style="stroke: #A80036; stroke-width: 1.0;" x1="0" x2="271" y1="392.3828" y2="392.3828"/><text fill="#000000" font-family="sans-serif" font-size="13" lengthAdjust="spacingAndGlyphs" textLength="56" x="7" y="387.5264">Resume()</text><path d="M212,407.3828 L272,407.3828 L272,415.3828 L262,425.3828 L212,425.3828 L212,407.3828 " fill="#EEEEEE" style="stroke: #000000; stroke-width: 1.0;"/><rect fill="none" height="184.1094" style="stroke: #000000; stroke-width: 2.0;" width="631.5" x="212" y="407.3828"/><text fill="#000000" font-family="sans-serif" font-size="13" font-weight="bold" lengthAdjust="spacingAndGlyphs" textLength="15" x="227" y="421.8779">alt</text><text fill="#000000" font-family="sans-serif" font-size="11" font-weight="bold" lengthAdjust="spacingAndGlyphs" textLength="154" x="287" y="420.8018">[_dataReaderSession == null]</text><polygon fill="#A80036" points="447,444.0859,457,448.0859,447,452.0859,451,448.0859" style="stroke: #A80036; stroke-width: 1.0;"/><line style="stroke: #A80036; stroke-width: 1.0;" x1="277" x2="453" y1="448.0859" y2="448.0859"/><text fill="#000000" font-family="sans-serif" font-size="13" lengthAdjust="spacingAndGlyphs" textLength="144" x="284" y="443.2295">resumeTask = Resume()</text><polygon fill="#A80036" points="288,474.4375,278,478.4375,288,482.4375,284,478.4375" style="stroke: #A80036; stroke-width: 1.0;"/><line style="stroke: #A80036; stroke-width: 1.0; stroke-dasharray: 2.0,2.0;" x1="282" x2="453" y1="478.4375" y2="478.4375"/><text fill="#000000" font-family="sans-serif" font-size="13" lengthAdjust="spacingAndGlyphs" textLength="29" x="294" y="473.5811">Task</text><polygon fill="#A80036" points="778.5,504.7891,788.5,508.7891,778.5,512.7891,782.5,508.7891" style="stroke: #A80036; stroke-width: 1.0;"/><line style="stroke: #A80036; stroke-width: 1.0;" x1="277" x2="784.5" y1="508.7891" y2="508.7891"/><text fill="#000000" font-family="sans-serif" font-size="13" lengthAdjust="spacingAndGlyphs" textLength="56" x="284" y="503.9326">Resume()</text><polygon fill="#A80036" points="564,535.1406,574,539.1406,564,543.1406,568,539.1406" style="stroke: #A80036; stroke-width: 1.0;"/><line style="stroke: #A80036; stroke-width: 1.0;" x1="277" x2="570" y1="539.1406" y2="539.1406"/><text fill="#000000" font-family="sans-serif" font-size="13" lengthAdjust="spacingAndGlyphs" textLength="239" x="284" y="534.2842">_dataReaderSession = FactoryDelegate()</text><polygon fill="#A80036" points="683,549.1406,693,553.1406,683,557.1406,687,553.1406" style="stroke: #A80036; stroke-width: 1.0;"/><line style="stroke: #A80036; stroke-width: 1.0;" x1="586" x2="689" y1="553.1406" y2="553.1406"/><polygon fill="#A80036" points="288,579.4922,278,583.4922,288,587.4922,284,583.4922" style="stroke: #A80036; stroke-width: 1.0;"/><line style="stroke: #A80036; stroke-width: 1.0; stroke-dasharray: 2.0,2.0;" x1="282" x2="575" y1="583.4922" y2="583.4922"/><text fill="#000000" font-family="sans-serif" font-size="13" lengthAdjust="spacingAndGlyphs" textLength="68" x="294" y="578.6357">DataReader</text><polygon fill="#A80036" points="11,616.8438,1,620.8438,11,624.8438,7,620.8438" style="stroke: #A80036; stroke-width: 1.0;"/><line style="stroke: #A80036; stroke-width: 1.0; stroke-dasharray: 2.0,2.0;" x1="5" x2="276" y1="620.8438" y2="620.8438"/><text fill="#000000" font-family="sans-serif" font-size="13" lengthAdjust="spacingAndGlyphs" textLength="72" x="17" y="615.9873">resumeTask</text><!--MD5=[ec915133508d9eca38a018599a83d981]
@startuml EsPlayerPresenterSuspendResume
hide footbox

participant DataPresenter
participant DataProvider
participant FactoryDelegate <<DataReader>>
participant DataReader
participant ESPlayer

activate DataReader
activate DataProvider
activate ESPlayer
activate FactoryDelegate
...

[-> DataPresenter : Suspend()
alt _dataReaderSession != null
    DataPresenter -> ESPlayer : Pause()
    DataPresenter -> DataProvider : suspendTask = Suspend()
    DataPresenter <- - DataProvider : Task
    deactivate DataProvider
    DataPresenter -> DataReader : disposeTask = DisposeAsync()
    DataPresenter <- - DataReader : Task
    destroy DataReader
end
[<- - DataPresenter : Task.WhenAll( suspendTask,disposeTask )
...

[-> DataPresenter : Resume()
alt _dataReaderSession == null
    DataPresenter -> DataProvider : resumeTask = Resume()
    DataPresenter <- - DataProvider : Task
    activate DataProvider
    DataPresenter -> ESPlayer : Resume()
    
    DataPresenter -> FactoryDelegate : _dataReaderSession = FactoryDelegate()
    FactoryDelegate -> DataReader
    activate DataReader
    DataPresenter <- - FactoryDelegate : DataReader
end
[<- - DataPresenter : resumeTask

@enduml

PlantUML version 1.2020.20(Sat Nov 21 11:02:45 CET 2020)
(GPL source distribution)
Java Runtime: OpenJDK Runtime Environment
JVM: OpenJDK 64-Bit Server VM
Default Encoding: Cp1250
Language: en
Country: GB
--></g></svg>