<?xml version="1.0" encoding="UTF-8" standalone="no"?><svg xmlns="http://www.w3.org/2000/svg" xmlns:xlink="http://www.w3.org/1999/xlink" contentScriptType="application/ecmascript" contentStyleType="text/css" height="1317px" preserveAspectRatio="none" style="width:585px;height:1317px;" version="1.1" viewBox="0 0 585 1317" width="585px" zoomAndPan="magnify"><defs><filter height="300%" id="faqlt45dvjhf8" width="300%" x="-1" y="-1"><feGaussianBlur result="blurOut" stdDeviation="2.0"/><feColorMatrix in="blurOut" result="blurOut2" type="matrix" values="0 0 0 0 0 0 0 0 0 0 0 0 0 0 0 0 0 0 .4 0"/><feOffset dx="4.0" dy="4.0" in="blurOut2" result="blurOut3"/><feBlend in="SourceGraphic" in2="blurOut3" mode="normal"/></filter></defs><g><rect fill="#FFFFFF" filter="url(#faqlt45dvjhf8)" height="132.0547" style="stroke: #FFFFFF; stroke-width: 1.0;" width="10" x="210" y="69.2188"/><line style="stroke: #A80036; stroke-width: 1.0;" x1="210" x2="210" y1="69.2188" y2="201.2734"/><line style="stroke: #A80036; stroke-width: 1.0;" x1="220" x2="220" y1="69.2188" y2="201.2734"/><line style="stroke: #A80036; stroke-width: 1.0;" x1="210" x2="220" y1="69.2188" y2="69.2188"/><rect fill="#FFFFFF" filter="url(#faqlt45dvjhf8)" height="104.0547" style="stroke: #FFFFFF; stroke-width: 1.0;" width="10" x="210" y="229.2734"/><line style="stroke: #A80036; stroke-width: 1.0;" x1="210" x2="210" y1="229.2734" y2="333.3281"/><line style="stroke: #A80036; stroke-width: 1.0;" x1="220" x2="220" y1="229.2734" y2="333.3281"/><rect fill="#FFFFFF" filter="url(#faqlt45dvjhf8)" height="195.1094" style="stroke: #FFFFFF; stroke-width: 1.0;" width="10" x="210" y="361.3281"/><line style="stroke: #A80036; stroke-width: 1.0;" x1="210" x2="210" y1="361.3281" y2="556.4375"/><line style="stroke: #A80036; stroke-width: 1.0;" x1="220" x2="220" y1="361.3281" y2="556.4375"/><rect fill="#FFFFFF" filter="url(#faqlt45dvjhf8)" height="121.4063" style="stroke: #FFFFFF; stroke-width: 1.0;" width="10" x="210" y="584.4375"/><line style="stroke: #A80036; stroke-width: 1.0;" x1="210" x2="210" y1="584.4375" y2="705.8438"/><line style="stroke: #A80036; stroke-width: 1.0;" x1="220" x2="220" y1="584.4375" y2="705.8438"/><rect fill="#FFFFFF" filter="url(#faqlt45dvjhf8)" height="121.4063" style="stroke: #FFFFFF; stroke-width: 1.0;" width="10" x="210" y="733.8438"/><line style="stroke: #A80036; stroke-width: 1.0;" x1="210" x2="210" y1="733.8438" y2="855.25"/><line style="stroke: #A80036; stroke-width: 1.0;" x1="220" x2="220" y1="733.8438" y2="855.25"/><rect fill="#FFFFFF" filter="url(#faqlt45dvjhf8)" height="121.4063" style="stroke: #FFFFFF; stroke-width: 1.0;" width="10" x="210" y="883.25"/><line style="stroke: #A80036; stroke-width: 1.0;" x1="210" x2="210" y1="883.25" y2="1004.6563"/><line style="stroke: #A80036; stroke-width: 1.0;" x1="220" x2="220" y1="883.25" y2="1004.6563"/><rect fill="#FFFFFF" filter="url(#faqlt45dvjhf8)" height="121.4063" style="stroke: #FFFFFF; stroke-width: 1.0;" width="10" x="210" y="1032.6563"/><line style="stroke: #A80036; stroke-width: 1.0;" x1="210" x2="210" y1="1032.6563" y2="1154.0625"/><line style="stroke: #A80036; stroke-width: 1.0;" x1="220" x2="220" y1="1032.6563" y2="1154.0625"/><rect fill="#FFFFFF" filter="url(#faqlt45dvjhf8)" height="110.0547" style="stroke: #FFFFFF; stroke-width: 1.0;" width="10" x="210" y="1182.0625"/><line style="stroke: #A80036; stroke-width: 1.0;" x1="210" x2="210" y1="1182.0625" y2="1292.1172"/><line style="stroke: #A80036; stroke-width: 1.0;" x1="220" x2="220" y1="1182.0625" y2="1292.1172"/><line style="stroke: #A80036; stroke-width: 1.0;" x1="210" x2="220" y1="1292.1172" y2="1292.1172"/><rect fill="#FFFFFF" filter="url(#faqlt45dvjhf8)" height="99.0547" style="stroke: #FFFFFF; stroke-width: 1.0;" width="10" x="505" y="457.3828"/><line style="stroke: #A80036; stroke-width: 1.0;" x1="505" x2="505" y1="457.3828" y2="556.4375"/><line style="stroke: #A80036; stroke-width: 1.0;" x1="515" x2="515" y1="457.3828" y2="556.4375"/><line style="stroke: #A80036; stroke-width: 1.0;" x1="505" x2="515" y1="457.3828" y2="457.3828"/><rect fill="#FFFFFF" filter="url(#faqlt45dvjhf8)" height="121.4063" style="stroke: #FFFFFF; stroke-width: 1.0;" width="10" x="505" y="584.4375"/><line style="stroke: #A80036; stroke-width: 1.0;" x1="505" x2="505" y1="584.4375" y2="705.8438"/><line style="stroke: #A80036; stroke-width: 1.0;" x1="515" x2="515" y1="584.4375" y2="705.8438"/><rect fill="#FFFFFF" filter="url(#faqlt45dvjhf8)" height="121.4063" style="stroke: #FFFFFF; stroke-width: 1.0;" width="10" x="505" y="733.8438"/><line style="stroke: #A80036; stroke-width: 1.0;" x1="505" x2="505" y1="733.8438" y2="855.25"/><line style="stroke: #A80036; stroke-width: 1.0;" x1="515" x2="515" y1="733.8438" y2="855.25"/><rect fill="#FFFFFF" filter="url(#faqlt45dvjhf8)" height="121.4063" style="stroke: #FFFFFF; stroke-width: 1.0;" width="10" x="505" y="883.25"/><line style="stroke: #A80036; stroke-width: 1.0;" x1="505" x2="505" y1="883.25" y2="1004.6563"/><line style="stroke: #A80036; stroke-width: 1.0;" x1="515" x2="515" y1="883.25" y2="1004.6563"/><rect fill="#FFFFFF" filter="url(#faqlt45dvjhf8)" height="121.4063" style="stroke: #FFFFFF; stroke-width: 1.0;" width="10" x="505" y="1032.6563"/><line style="stroke: #A80036; stroke-width: 1.0;" x1="505" x2="505" y1="1032.6563" y2="1154.0625"/><line style="stroke: #A80036; stroke-width: 1.0;" x1="515" x2="515" y1="1032.6563" y2="1154.0625"/><rect fill="#FFFFFF" filter="url(#faqlt45dvjhf8)" height="96.0547" style="stroke: #FFFFFF; stroke-width: 1.0;" width="10" x="505" y="1182.0625"/><line style="stroke: #A80036; stroke-width: 1.0;" x1="505" x2="505" y1="1182.0625" y2="1278.1172"/><line style="stroke: #A80036; stroke-width: 1.0;" x1="515" x2="515" y1="1182.0625" y2="1278.1172"/><line style="stroke: #A80036; stroke-width: 1.0;" x1="505" x2="515" y1="1278.1172" y2="1278.1172"/><line style="stroke: #A80036; stroke-width: 1.0;" x1="214.5" x2="214.5" y1="59.2188" y2="69.2188"/><line style="stroke: #A80036; stroke-width: 1.0; stroke-dasharray: 1.0,4.0;" x1="214.5" x2="214.5" y1="69.2188" y2="97.2188"/><line style="stroke: #A80036; stroke-width: 1.0;" x1="214.5" x2="214.5" y1="97.2188" y2="201.2734"/><line style="stroke: #A80036; stroke-width: 1.0; stroke-dasharray: 1.0,4.0;" x1="214.5" x2="214.5" y1="201.2734" y2="229.2734"/><line style="stroke: #A80036; stroke-width: 1.0;" x1="214.5" x2="214.5" y1="229.2734" y2="333.3281"/><line style="stroke: #A80036; stroke-width: 1.0; stroke-dasharray: 1.0,4.0;" x1="214.5" x2="214.5" y1="333.3281" y2="361.3281"/><line style="stroke: #A80036; stroke-width: 1.0;" x1="214.5" x2="214.5" y1="361.3281" y2="556.4375"/><line style="stroke: #A80036; stroke-width: 1.0; stroke-dasharray: 1.0,4.0;" x1="214.5" x2="214.5" y1="556.4375" y2="584.4375"/><line style="stroke: #A80036; stroke-width: 1.0;" x1="214.5" x2="214.5" y1="584.4375" y2="705.8438"/><line style="stroke: #A80036; stroke-width: 1.0; stroke-dasharray: 1.0,4.0;" x1="214.5" x2="214.5" y1="705.8438" y2="733.8438"/><line style="stroke: #A80036; stroke-width: 1.0;" x1="214.5" x2="214.5" y1="733.8438" y2="855.25"/><line style="stroke: #A80036; stroke-width: 1.0; stroke-dasharray: 1.0,4.0;" x1="214.5" x2="214.5" y1="855.25" y2="883.25"/><line style="stroke: #A80036; stroke-width: 1.0;" x1="214.5" x2="214.5" y1="883.25" y2="1004.6563"/><line style="stroke: #A80036; stroke-width: 1.0; stroke-dasharray: 1.0,4.0;" x1="214.5" x2="214.5" y1="1004.6563" y2="1032.6563"/><line style="stroke: #A80036; stroke-width: 1.0;" x1="214.5" x2="214.5" y1="1032.6563" y2="1154.0625"/><line style="stroke: #A80036; stroke-width: 1.0; stroke-dasharray: 1.0,4.0;" x1="214.5" x2="214.5" y1="1154.0625" y2="1182.0625"/><line style="stroke: #A80036; stroke-width: 1.0;" x1="214.5" x2="214.5" y1="1182.0625" y2="1310.1172"/><line style="stroke: #A80036; stroke-width: 1.0;" x1="510" x2="510" y1="59.2188" y2="69.2188"/><line style="stroke: #A80036; stroke-width: 1.0; stroke-dasharray: 1.0,4.0;" x1="510" x2="510" y1="69.2188" y2="97.2188"/><line style="stroke: #A80036; stroke-width: 1.0;" x1="510" x2="510" y1="97.2188" y2="201.2734"/><line style="stroke: #A80036; stroke-width: 1.0; stroke-dasharray: 1.0,4.0;" x1="510" x2="510" y1="201.2734" y2="229.2734"/><line style="stroke: #A80036; stroke-width: 1.0;" x1="510" x2="510" y1="229.2734" y2="333.3281"/><line style="stroke: #A80036; stroke-width: 1.0; stroke-dasharray: 1.0,4.0;" x1="510" x2="510" y1="333.3281" y2="361.3281"/><line style="stroke: #A80036; stroke-width: 1.0;" x1="510" x2="510" y1="361.3281" y2="556.4375"/><line style="stroke: #A80036; stroke-width: 1.0; stroke-dasharray: 1.0,4.0;" x1="510" x2="510" y1="556.4375" y2="584.4375"/><line style="stroke: #A80036; stroke-width: 1.0;" x1="510" x2="510" y1="584.4375" y2="705.8438"/><line style="stroke: #A80036; stroke-width: 1.0; stroke-dasharray: 1.0,4.0;" x1="510" x2="510" y1="705.8438" y2="733.8438"/><line style="stroke: #A80036; stroke-width: 1.0;" x1="510" x2="510" y1="733.8438" y2="855.25"/><line style="stroke: #A80036; stroke-width: 1.0; stroke-dasharray: 1.0,4.0;" x1="510" x2="510" y1="855.25" y2="883.25"/><line style="stroke: #A80036; stroke-width: 1.0;" x1="510" x2="510" y1="883.25" y2="1004.6563"/><line style="stroke: #A80036; stroke-width: 1.0; stroke-dasharray: 1.0,4.0;" x1="510" x2="510" y1="1004.6563" y2="1032.6563"/><line style="stroke: #A80036; stroke-width: 1.0;" x1="510" x2="510" y1="1032.6563" y2="1154.0625"/><line style="stroke: #A80036; stroke-width: 1.0; stroke-dasharray: 1.0,4.0;" x1="510" x2="510" y1="1154.0625" y2="1182.0625"/><line style="stroke: #A80036; stroke-width: 1.0;" x1="510" x2="510" y1="1182.0625" y2="1310.1172"/><rect fill="#FEFECE" filter="url(#faqlt45dvjhf8)" height="49.2188" style="stroke: #A80036; stroke-width: 1.5;" width="125" x="150.5" y="5"/><text fill="#000000" font-family="sans-serif" font-size="14" font-style="italic" lengthAdjust="spacingAndGlyphs" textLength="111" x="157.5" y="26.5332">«GenericSource»</text><text fill="#000000" font-family="sans-serif" font-size="14" lengthAdjust="spacingAndGlyphs" textLength="75" x="175.5" y="44.1426">DataSource</text><rect fill="#FEFECE" filter="url(#faqlt45dvjhf8)" height="31.6094" style="stroke: #A80036; stroke-width: 1.5;" width="126" x="445" y="22.6094"/><text fill="#000000" font-family="sans-serif" font-size="14" lengthAdjust="spacingAndGlyphs" textLength="112" x="452" y="44.1426">FFmpegDemuxer</text><rect fill="#FFFFFF" filter="url(#faqlt45dvjhf8)" height="132.0547" style="stroke: #FFFFFF; stroke-width: 1.0;" width="10" x="210" y="69.2188"/><line style="stroke: #A80036; stroke-width: 1.0;" x1="210" x2="210" y1="69.2188" y2="201.2734"/><line style="stroke: #A80036; stroke-width: 1.0;" x1="220" x2="220" y1="69.2188" y2="201.2734"/><line style="stroke: #A80036; stroke-width: 1.0;" x1="210" x2="220" y1="69.2188" y2="69.2188"/><rect fill="#FFFFFF" filter="url(#faqlt45dvjhf8)" height="104.0547" style="stroke: #FFFFFF; stroke-width: 1.0;" width="10" x="210" y="229.2734"/><line style="stroke: #A80036; stroke-width: 1.0;" x1="210" x2="210" y1="229.2734" y2="333.3281"/><line style="stroke: #A80036; stroke-width: 1.0;" x1="220" x2="220" y1="229.2734" y2="333.3281"/><rect fill="#FFFFFF" filter="url(#faqlt45dvjhf8)" height="195.1094" style="stroke: #FFFFFF; stroke-width: 1.0;" width="10" x="210" y="361.3281"/><line style="stroke: #A80036; stroke-width: 1.0;" x1="210" x2="210" y1="361.3281" y2="556.4375"/><line style="stroke: #A80036; stroke-width: 1.0;" x1="220" x2="220" y1="361.3281" y2="556.4375"/><rect fill="#FFFFFF" filter="url(#faqlt45dvjhf8)" height="121.4063" style="stroke: #FFFFFF; stroke-width: 1.0;" width="10" x="210" y="584.4375"/><line style="stroke: #A80036; stroke-width: 1.0;" x1="210" x2="210" y1="584.4375" y2="705.8438"/><line style="stroke: #A80036; stroke-width: 1.0;" x1="220" x2="220" y1="584.4375" y2="705.8438"/><rect fill="#FFFFFF" filter="url(#faqlt45dvjhf8)" height="121.4063" style="stroke: #FFFFFF; stroke-width: 1.0;" width="10" x="210" y="733.8438"/><line style="stroke: #A80036; stroke-width: 1.0;" x1="210" x2="210" y1="733.8438" y2="855.25"/><line style="stroke: #A80036; stroke-width: 1.0;" x1="220" x2="220" y1="733.8438" y2="855.25"/><rect fill="#FFFFFF" filter="url(#faqlt45dvjhf8)" height="121.4063" style="stroke: #FFFFFF; stroke-width: 1.0;" width="10" x="210" y="883.25"/><line style="stroke: #A80036; stroke-width: 1.0;" x1="210" x2="210" y1="883.25" y2="1004.6563"/><line style="stroke: #A80036; stroke-width: 1.0;" x1="220" x2="220" y1="883.25" y2="1004.6563"/><rect fill="#FFFFFF" filter="url(#faqlt45dvjhf8)" height="121.4063" style="stroke: #FFFFFF; stroke-width: 1.0;" width="10" x="210" y="1032.6563"/><line style="stroke: #A80036; stroke-width: 1.0;" x1="210" x2="210" y1="1032.6563" y2="1154.0625"/><line style="stroke: #A80036; stroke-width: 1.0;" x1="220" x2="220" y1="1032.6563" y2="1154.0625"/><rect fill="#FFFFFF" filter="url(#faqlt45dvjhf8)" height="110.0547" style="stroke: #FFFFFF; stroke-width: 1.0;" width="10" x="210" y="1182.0625"/><line style="stroke: #A80036; stroke-width: 1.0;" x1="210" x2="210" y1="1182.0625" y2="1292.1172"/><line style="stroke: #A80036; stroke-width: 1.0;" x1="220" x2="220" y1="1182.0625" y2="1292.1172"/><line style="stroke: #A80036; stroke-width: 1.0;" x1="210" x2="220" y1="1292.1172" y2="1292.1172"/><rect fill="#FFFFFF" filter="url(#faqlt45dvjhf8)" height="99.0547" style="stroke: #FFFFFF; stroke-width: 1.0;" width="10" x="505" y="457.3828"/><line style="stroke: #A80036; stroke-width: 1.0;" x1="505" x2="505" y1="457.3828" y2="556.4375"/><line style="stroke: #A80036; stroke-width: 1.0;" x1="515" x2="515" y1="457.3828" y2="556.4375"/><line style="stroke: #A80036; stroke-width: 1.0;" x1="505" x2="515" y1="457.3828" y2="457.3828"/><rect fill="#FFFFFF" filter="url(#faqlt45dvjhf8)" height="121.4063" style="stroke: #FFFFFF; stroke-width: 1.0;" width="10" x="505" y="584.4375"/><line style="stroke: #A80036; stroke-width: 1.0;" x1="505" x2="505" y1="584.4375" y2="705.8438"/><line style="stroke: #A80036; stroke-width: 1.0;" x1="515" x2="515" y1="584.4375" y2="705.8438"/><rect fill="#FFFFFF" filter="url(#faqlt45dvjhf8)" height="121.4063" style="stroke: #FFFFFF; stroke-width: 1.0;" width="10" x="505" y="733.8438"/><line style="stroke: #A80036; stroke-width: 1.0;" x1="505" x2="505" y1="733.8438" y2="855.25"/><line style="stroke: #A80036; stroke-width: 1.0;" x1="515" x2="515" y1="733.8438" y2="855.25"/><rect fill="#FFFFFF" filter="url(#faqlt45dvjhf8)" height="121.4063" style="stroke: #FFFFFF; stroke-width: 1.0;" width="10" x="505" y="883.25"/><line style="stroke: #A80036; stroke-width: 1.0;" x1="505" x2="505" y1="883.25" y2="1004.6563"/><line style="stroke: #A80036; stroke-width: 1.0;" x1="515" x2="515" y1="883.25" y2="1004.6563"/><rect fill="#FFFFFF" filter="url(#faqlt45dvjhf8)" height="121.4063" style="stroke: #FFFFFF; stroke-width: 1.0;" width="10" x="505" y="1032.6563"/><line style="stroke: #A80036; stroke-width: 1.0;" x1="505" x2="505" y1="1032.6563" y2="1154.0625"/><line style="stroke: #A80036; stroke-width: 1.0;" x1="515" x2="515" y1="1032.6563" y2="1154.0625"/><rect fill="#FFFFFF" filter="url(#faqlt45dvjhf8)" height="96.0547" style="stroke: #FFFFFF; stroke-width: 1.0;" width="10" x="505" y="1182.0625"/><line style="stroke: #A80036; stroke-width: 1.0;" x1="505" x2="505" y1="1182.0625" y2="1278.1172"/><line style="stroke: #A80036; stroke-width: 1.0;" x1="515" x2="515" y1="1182.0625" y2="1278.1172"/><line style="stroke: #A80036; stroke-width: 1.0;" x1="505" x2="515" y1="1278.1172" y2="1278.1172"/><polygon fill="#A80036" points="198,115.5703,208,119.5703,198,123.5703,202,119.5703" style="stroke: #A80036; stroke-width: 1.0;"/><line style="stroke: #A80036; stroke-width: 1.0;" x1="0" x2="204" y1="119.5703" y2="119.5703"/><text fill="#000000" font-family="sans-serif" font-size="13" lengthAdjust="spacingAndGlyphs" textLength="79" x="7" y="114.7139">Add( string[] )</text><line style="stroke: #A80036; stroke-width: 1.0;" x1="220" x2="262" y1="149.9219" y2="149.9219"/><line style="stroke: #A80036; stroke-width: 1.0;" x1="262" x2="262" y1="149.9219" y2="162.9219"/><line style="stroke: #A80036; stroke-width: 1.0;" x1="221" x2="262" y1="162.9219" y2="162.9219"/><polygon fill="#A80036" points="231,158.9219,221,162.9219,231,166.9219,227,162.9219" style="stroke: #A80036; stroke-width: 1.0;"/><text fill="#000000" font-family="sans-serif" font-size="13" lengthAdjust="spacingAndGlyphs" textLength="125" x="227" y="145.0654">_sourceUrls = string[]</text><polygon fill="#A80036" points="11,189.2734,1,193.2734,11,197.2734,7,193.2734" style="stroke: #A80036; stroke-width: 1.0;"/><line style="stroke: #A80036; stroke-width: 1.0; stroke-dasharray: 2.0,2.0;" x1="5" x2="209" y1="193.2734" y2="193.2734"/><text fill="#000000" font-family="sans-serif" font-size="13" lengthAdjust="spacingAndGlyphs" textLength="68" x="17" y="188.417">DataSource</text><polygon fill="#A80036" points="198,247.625,208,251.625,198,255.625,202,251.625" style="stroke: #A80036; stroke-width: 1.0;"/><line style="stroke: #A80036; stroke-width: 1.0;" x1="0" x2="204" y1="251.625" y2="251.625"/><text fill="#000000" font-family="sans-serif" font-size="13" lengthAdjust="spacingAndGlyphs" textLength="155" x="7" y="246.7686">With( DataSourceOptions )</text><line style="stroke: #A80036; stroke-width: 1.0;" x1="220" x2="262" y1="281.9766" y2="281.9766"/><line style="stroke: #A80036; stroke-width: 1.0;" x1="262" x2="262" y1="281.9766" y2="294.9766"/><line style="stroke: #A80036; stroke-width: 1.0;" x1="221" x2="262" y1="294.9766" y2="294.9766"/><polygon fill="#A80036" points="231,290.9766,221,294.9766,231,298.9766,227,294.9766" style="stroke: #A80036; stroke-width: 1.0;"/><text fill="#000000" font-family="sans-serif" font-size="13" lengthAdjust="spacingAndGlyphs" textLength="178" x="227" y="277.1201">_options = DataSourceOptions</text><polygon fill="#A80036" points="11,321.3281,1,325.3281,11,329.3281,7,325.3281" style="stroke: #A80036; stroke-width: 1.0;"/><line style="stroke: #A80036; stroke-width: 1.0; stroke-dasharray: 2.0,2.0;" x1="5" x2="209" y1="325.3281" y2="325.3281"/><text fill="#000000" font-family="sans-serif" font-size="13" lengthAdjust="spacingAndGlyphs" textLength="68" x="17" y="320.4717">DataSource</text><polygon fill="#A80036" points="198,379.6797,208,383.6797,198,387.6797,202,383.6797" style="stroke: #A80036; stroke-width: 1.0;"/><line style="stroke: #A80036; stroke-width: 1.0;" x1="0" x2="204" y1="383.6797" y2="383.6797"/><text fill="#000000" font-family="sans-serif" font-size="13" lengthAdjust="spacingAndGlyphs" textLength="39" x="7" y="378.8232">Open()</text><line style="stroke: #A80036; stroke-width: 1.0;" x1="220" x2="262" y1="414.0313" y2="414.0313"/><line style="stroke: #A80036; stroke-width: 1.0;" x1="262" x2="262" y1="414.0313" y2="427.0313"/><line style="stroke: #A80036; stroke-width: 1.0;" x1="221" x2="262" y1="427.0313" y2="427.0313"/><polygon fill="#A80036" points="231,423.0313,221,427.0313,231,431.0313,227,427.0313" style="stroke: #A80036; stroke-width: 1.0;"/><text fill="#000000" font-family="sans-serif" font-size="13" lengthAdjust="spacingAndGlyphs" textLength="271" x="227" y="409.1748">_sessionCts = new CancellationTokenSource()</text><polygon fill="#A80036" points="493,453.3828,503,457.3828,493,461.3828,497,457.3828" style="stroke: #A80036; stroke-width: 1.0;"/><line style="stroke: #A80036; stroke-width: 1.0;" x1="220" x2="499" y1="457.3828" y2="457.3828"/><text fill="#000000" font-family="sans-serif" font-size="13" lengthAdjust="spacingAndGlyphs" textLength="149" x="227" y="452.5264">new( new FFmpegGlue() )</text><polygon fill="#A80036" points="493,483.7344,503,487.7344,493,491.7344,497,487.7344" style="stroke: #A80036; stroke-width: 1.0;"/><line style="stroke: #A80036; stroke-width: 1.0;" x1="220" x2="499" y1="487.7344" y2="487.7344"/><text fill="#000000" font-family="sans-serif" font-size="13" lengthAdjust="spacingAndGlyphs" textLength="210" x="227" y="482.8779">InitForUrl( _sourceUrls[0], _options )</text><polygon fill="#A80036" points="231,514.0859,221,518.0859,231,522.0859,227,518.0859" style="stroke: #A80036; stroke-width: 1.0;"/><line style="stroke: #A80036; stroke-width: 1.0; stroke-dasharray: 2.0,2.0;" x1="225" x2="504" y1="518.0859" y2="518.0859"/><text fill="#000000" font-family="sans-serif" font-size="13" lengthAdjust="spacingAndGlyphs" textLength="143" x="237" y="513.2295">Task&lt;ClipConfiguration&gt;</text><polygon fill="#A80036" points="11,544.4375,1,548.4375,11,552.4375,7,548.4375" style="stroke: #A80036; stroke-width: 1.0;"/><line style="stroke: #A80036; stroke-width: 1.0; stroke-dasharray: 2.0,2.0;" x1="5" x2="209" y1="548.4375" y2="548.4375"/><text fill="#000000" font-family="sans-serif" font-size="13" lengthAdjust="spacingAndGlyphs" textLength="143" x="17" y="543.5811">Task&lt;ClipConfiguration&gt;</text><polygon fill="#A80036" points="198,602.7891,208,606.7891,198,610.7891,202,606.7891" style="stroke: #A80036; stroke-width: 1.0;"/><line style="stroke: #A80036; stroke-width: 1.0;" x1="0" x2="204" y1="606.7891" y2="606.7891"/><text fill="#000000" font-family="sans-serif" font-size="13" lengthAdjust="spacingAndGlyphs" textLength="191" x="7" y="601.9326">NextPacket( CancellationToken )</text><polygon fill="#A80036" points="493,633.1406,503,637.1406,493,641.1406,497,637.1406" style="stroke: #A80036; stroke-width: 1.0;"/><line style="stroke: #A80036; stroke-width: 1.0;" x1="220" x2="499" y1="637.1406" y2="637.1406"/><text fill="#000000" font-family="sans-serif" font-size="13" lengthAdjust="spacingAndGlyphs" textLength="183" x="227" y="632.2842">NextPacket(CancellationToken)</text><polygon fill="#A80036" points="231,663.4922,221,667.4922,231,671.4922,227,667.4922" style="stroke: #A80036; stroke-width: 1.0;"/><line style="stroke: #A80036; stroke-width: 1.0; stroke-dasharray: 2.0,2.0;" x1="225" x2="504" y1="667.4922" y2="667.4922"/><text fill="#000000" font-family="sans-serif" font-size="13" lengthAdjust="spacingAndGlyphs" textLength="86" x="237" y="662.6357">Task&lt;Packet&gt;</text><polygon fill="#A80036" points="11,693.8438,1,697.8438,11,701.8438,7,697.8438" style="stroke: #A80036; stroke-width: 1.0;"/><line style="stroke: #A80036; stroke-width: 1.0; stroke-dasharray: 2.0,2.0;" x1="5" x2="209" y1="697.8438" y2="697.8438"/><text fill="#000000" font-family="sans-serif" font-size="13" lengthAdjust="spacingAndGlyphs" textLength="86" x="17" y="692.9873">Task&lt;Packet&gt;</text><polygon fill="#A80036" points="198,752.1953,208,756.1953,198,760.1953,202,756.1953" style="stroke: #A80036; stroke-width: 1.0;"/><line style="stroke: #A80036; stroke-width: 1.0;" x1="0" x2="204" y1="756.1953" y2="756.1953"/><text fill="#000000" font-family="sans-serif" font-size="13" lengthAdjust="spacingAndGlyphs" textLength="105" x="7" y="751.3389">Seek( TimeSpan )</text><polygon fill="#A80036" points="493,782.5469,503,786.5469,493,790.5469,497,786.5469" style="stroke: #A80036; stroke-width: 1.0;"/><line style="stroke: #A80036; stroke-width: 1.0;" x1="220" x2="499" y1="786.5469" y2="786.5469"/><text fill="#000000" font-family="sans-serif" font-size="13" lengthAdjust="spacingAndGlyphs" textLength="225" x="227" y="781.6904">Seek( TimeSpan, _sessionCts.Token )</text><polygon fill="#A80036" points="231,812.8984,221,816.8984,231,820.8984,227,816.8984" style="stroke: #A80036; stroke-width: 1.0;"/><line style="stroke: #A80036; stroke-width: 1.0; stroke-dasharray: 2.0,2.0;" x1="225" x2="504" y1="816.8984" y2="816.8984"/><text fill="#000000" font-family="sans-serif" font-size="13" lengthAdjust="spacingAndGlyphs" textLength="104" x="237" y="812.042">Task&lt;TimeSpan&gt;</text><polygon fill="#A80036" points="11,843.25,1,847.25,11,851.25,7,847.25" style="stroke: #A80036; stroke-width: 1.0;"/><line style="stroke: #A80036; stroke-width: 1.0; stroke-dasharray: 2.0,2.0;" x1="5" x2="209" y1="847.25" y2="847.25"/><text fill="#000000" font-family="sans-serif" font-size="13" lengthAdjust="spacingAndGlyphs" textLength="104" x="17" y="842.3936">Task&lt;TimeSpan&gt;</text><polygon fill="#A80036" points="198,901.6016,208,905.6016,198,909.6016,202,905.6016" style="stroke: #A80036; stroke-width: 1.0;"/><line style="stroke: #A80036; stroke-width: 1.0;" x1="0" x2="204" y1="905.6016" y2="905.6016"/><text fill="#000000" font-family="sans-serif" font-size="13" lengthAdjust="spacingAndGlyphs" textLength="59" x="7" y="900.7451">Suspend()</text><polygon fill="#A80036" points="493,931.9531,503,935.9531,493,939.9531,497,935.9531" style="stroke: #A80036; stroke-width: 1.0;"/><line style="stroke: #A80036; stroke-width: 1.0;" x1="220" x2="499" y1="935.9531" y2="935.9531"/><text fill="#000000" font-family="sans-serif" font-size="13" lengthAdjust="spacingAndGlyphs" textLength="45" x="227" y="931.0967">Pause()</text><polygon fill="#A80036" points="231,962.3047,221,966.3047,231,970.3047,227,966.3047" style="stroke: #A80036; stroke-width: 1.0;"/><line style="stroke: #A80036; stroke-width: 1.0; stroke-dasharray: 2.0,2.0;" x1="225" x2="504" y1="966.3047" y2="966.3047"/><text fill="#000000" font-family="sans-serif" font-size="13" lengthAdjust="spacingAndGlyphs" textLength="69" x="237" y="961.4482">Task&lt;bool&gt;</text><polygon fill="#A80036" points="11,992.6563,1,996.6563,11,1000.6563,7,996.6563" style="stroke: #A80036; stroke-width: 1.0;"/><line style="stroke: #A80036; stroke-width: 1.0; stroke-dasharray: 2.0,2.0;" x1="5" x2="209" y1="996.6563" y2="996.6563"/><text fill="#000000" font-family="sans-serif" font-size="13" lengthAdjust="spacingAndGlyphs" textLength="69" x="17" y="991.7998">Task&lt;bool&gt;</text><polygon fill="#A80036" points="198,1051.0078,208,1055.0078,198,1059.0078,202,1055.0078" style="stroke: #A80036; stroke-width: 1.0;"/><line style="stroke: #A80036; stroke-width: 1.0;" x1="0" x2="204" y1="1055.0078" y2="1055.0078"/><text fill="#000000" font-family="sans-serif" font-size="13" lengthAdjust="spacingAndGlyphs" textLength="56" x="7" y="1050.1514">Resume()</text><polygon fill="#A80036" points="493,1081.3594,503,1085.3594,493,1089.3594,497,1085.3594" style="stroke: #A80036; stroke-width: 1.0;"/><line style="stroke: #A80036; stroke-width: 1.0;" x1="220" x2="499" y1="1085.3594" y2="1085.3594"/><text fill="#000000" font-family="sans-serif" font-size="13" lengthAdjust="spacingAndGlyphs" textLength="34" x="227" y="1080.5029">Play()</text><polygon fill="#A80036" points="231,1111.7109,221,1115.7109,231,1119.7109,227,1115.7109" style="stroke: #A80036; stroke-width: 1.0;"/><line style="stroke: #A80036; stroke-width: 1.0; stroke-dasharray: 2.0,2.0;" x1="225" x2="504" y1="1115.7109" y2="1115.7109"/><text fill="#000000" font-family="sans-serif" font-size="13" lengthAdjust="spacingAndGlyphs" textLength="69" x="237" y="1110.8545">Task&lt;bool&gt;</text><polygon fill="#A80036" points="11,1142.0625,1,1146.0625,11,1150.0625,7,1146.0625" style="stroke: #A80036; stroke-width: 1.0;"/><line style="stroke: #A80036; stroke-width: 1.0; stroke-dasharray: 2.0,2.0;" x1="5" x2="209" y1="1146.0625" y2="1146.0625"/><text fill="#000000" font-family="sans-serif" font-size="13" lengthAdjust="spacingAndGlyphs" textLength="69" x="17" y="1141.2061">Task&lt;bool&gt;</text><polygon fill="#A80036" points="198,1200.4141,208,1204.4141,198,1208.4141,202,1204.4141" style="stroke: #A80036; stroke-width: 1.0;"/><line style="stroke: #A80036; stroke-width: 1.0;" x1="0" x2="204" y1="1204.4141" y2="1204.4141"/><text fill="#000000" font-family="sans-serif" font-size="13" lengthAdjust="spacingAndGlyphs" textLength="55" x="7" y="1199.5576">Dispose()</text><line style="stroke: #A80036; stroke-width: 1.0;" x1="220" x2="262" y1="1234.7656" y2="1234.7656"/><line style="stroke: #A80036; stroke-width: 1.0;" x1="262" x2="262" y1="1234.7656" y2="1247.7656"/><line style="stroke: #A80036; stroke-width: 1.0;" x1="221" x2="262" y1="1247.7656" y2="1247.7656"/><polygon fill="#A80036" points="231,1243.7656,221,1247.7656,231,1251.7656,227,1247.7656" style="stroke: #A80036; stroke-width: 1.0;"/><text fill="#000000" font-family="sans-serif" font-size="13" lengthAdjust="spacingAndGlyphs" textLength="124" x="227" y="1229.9092">_sessionCts.Cancel()</text><polygon fill="#A80036" points="498,1274.1172,508,1278.1172,498,1282.1172,502,1278.1172" style="stroke: #A80036; stroke-width: 1.0;"/><line style="stroke: #A80036; stroke-width: 1.0;" x1="220" x2="504" y1="1278.1172" y2="1278.1172"/><text fill="#000000" font-family="sans-serif" font-size="13" lengthAdjust="spacingAndGlyphs" textLength="55" x="227" y="1273.2607">Dispose()</text><line style="stroke: #A80036; stroke-width: 2.0;" x1="501" x2="519" y1="1269.1172" y2="1287.1172"/><line style="stroke: #A80036; stroke-width: 2.0;" x1="501" x2="519" y1="1287.1172" y2="1269.1172"/><polygon fill="#A80036" points="11,1288.1172,1,1292.1172,11,1296.1172,7,1292.1172" style="stroke: #A80036; stroke-width: 1.0;"/><line style="stroke: #A80036; stroke-width: 1.0; stroke-dasharray: 2.0,2.0;" x1="5" x2="214" y1="1292.1172" y2="1292.1172"/><line style="stroke: #A80036; stroke-width: 2.0;" x1="206" x2="224" y1="1283.1172" y2="1301.1172"/><line style="stroke: #A80036; stroke-width: 2.0;" x1="206" x2="224" y1="1301.1172" y2="1283.1172"/><!--MD5=[9d76b8fd0eadffe0778f59fd6d1da741]
@startuml GenericSource
hide footbox

participant DataSource <<GenericSource>>
participant FFmpegDemuxer

activate DataSource
...
[-> DataSource : Add( string[] )
DataSource -> DataSource : _sourceUrls = string[]
[<- - DataSource : DataSource

...
[-> DataSource : With( DataSourceOptions )
DataSource -> DataSource : _options = DataSourceOptions
[<- - DataSource : DataSource

...
[-> DataSource : Open()
DataSource -> DataSource : _sessionCts = new CancellationTokenSource()
DataSource -> FFmpegDemuxer : new( new FFmpegGlue() )
activate FFmpegDemuxer
DataSource -> FFmpegDemuxer : InitForUrl( _sourceUrls[0], _options )
DataSource <- - FFmpegDemuxer : Task<ClipConfiguration>
[<- - DataSource : Task<ClipConfiguration>

...
[-> DataSource : NextPacket( CancellationToken )
DataSource -> FFmpegDemuxer : NextPacket(CancellationToken)
DataSource <- - FFmpegDemuxer : Task<Packet>
[<- - DataSource : Task<Packet>

...
[-> DataSource : Seek( TimeSpan )
DataSource -> FFmpegDemuxer : Seek( TimeSpan, _sessionCts.Token )
DataSource <- - FFmpegDemuxer : Task<TimeSpan>
[<- - DataSource : Task<TimeSpan>

...
[-> DataSource : Suspend()
DataSource -> FFmpegDemuxer : Pause()
DataSource <- - FFmpegDemuxer : Task<bool>
[<- - DataSource : Task<bool>

...
[-> DataSource : Resume()
DataSource -> FFmpegDemuxer : Play()
DataSource <- - FFmpegDemuxer : Task<bool>
[<- - DataSource : Task<bool>

...
[-> DataSource : Dispose()
DataSource -> DataSource : _sessionCts.Cancel()
DataSource -> FFmpegDemuxer : Dispose()
destroy FFmpegDemuxer
[<- - DataSource
destroy DataSource


@enduml

PlantUML version 1.2020.20(Sat Nov 21 11:02:45 CET 2020)
(GPL source distribution)
Java Runtime: OpenJDK Runtime Environment
JVM: OpenJDK 64-Bit Server VM
Default Encoding: Cp1250
Language: en
Country: GB
--></g></svg>