<?xml version="1.0" encoding="UTF-8" standalone="no"?><svg xmlns="http://www.w3.org/2000/svg" xmlns:xlink="http://www.w3.org/1999/xlink" contentScriptType="application/ecmascript" contentStyleType="text/css" height="1096px" preserveAspectRatio="none" style="width:487px;height:1096px;" version="1.1" viewBox="0 0 487 1096" width="487px" zoomAndPan="magnify"><defs><filter height="300%" id="f1p1ttfyqklrtz" width="300%" x="-1" y="-1"><feGaussianBlur result="blurOut" stdDeviation="2.0"/><feColorMatrix in="blurOut" result="blurOut2" type="matrix" values="0 0 0 0 0 0 0 0 0 0 0 0 0 0 0 0 0 0 .4 0"/><feOffset dx="4.0" dy="4.0" in="blurOut2" result="blurOut3"/><feBlend in="SourceGraphic" in2="blurOut3" mode="normal"/></filter></defs><g><rect fill="#FFFFFF" filter="url(#f1p1ttfyqklrtz)" height="38.3516" style="stroke: #FFFFFF; stroke-width: 1.0;" width="10" x="210" y="119.5703"/><line style="stroke: #A80036; stroke-width: 1.0;" x1="210" x2="210" y1="119.5703" y2="157.9219"/><line style="stroke: #A80036; stroke-width: 1.0;" x1="220" x2="220" y1="119.5703" y2="157.9219"/><line style="stroke: #A80036; stroke-width: 1.0;" x1="210" x2="220" y1="119.5703" y2="119.5703"/><rect fill="#FFFFFF" filter="url(#f1p1ttfyqklrtz)" height="60.7031" style="stroke: #FFFFFF; stroke-width: 1.0;" width="10" x="210" y="185.9219"/><line style="stroke: #A80036; stroke-width: 1.0;" x1="210" x2="210" y1="185.9219" y2="246.625"/><line style="stroke: #A80036; stroke-width: 1.0;" x1="220" x2="220" y1="185.9219" y2="246.625"/><rect fill="#FFFFFF" filter="url(#f1p1ttfyqklrtz)" height="121.4063" style="stroke: #FFFFFF; stroke-width: 1.0;" width="10" x="210" y="274.625"/><line style="stroke: #A80036; stroke-width: 1.0;" x1="210" x2="210" y1="274.625" y2="396.0313"/><line style="stroke: #A80036; stroke-width: 1.0;" x1="220" x2="220" y1="274.625" y2="396.0313"/><rect fill="#FFFFFF" filter="url(#f1p1ttfyqklrtz)" height="121.4063" style="stroke: #FFFFFF; stroke-width: 1.0;" width="10" x="210" y="424.0313"/><line style="stroke: #A80036; stroke-width: 1.0;" x1="210" x2="210" y1="424.0313" y2="545.4375"/><line style="stroke: #A80036; stroke-width: 1.0;" x1="220" x2="220" y1="424.0313" y2="545.4375"/><rect fill="#FFFFFF" filter="url(#f1p1ttfyqklrtz)" height="121.4063" style="stroke: #FFFFFF; stroke-width: 1.0;" width="10" x="210" y="573.4375"/><line style="stroke: #A80036; stroke-width: 1.0;" x1="210" x2="210" y1="573.4375" y2="694.8438"/><line style="stroke: #A80036; stroke-width: 1.0;" x1="220" x2="220" y1="573.4375" y2="694.8438"/><rect fill="#FFFFFF" filter="url(#f1p1ttfyqklrtz)" height="121.4063" style="stroke: #FFFFFF; stroke-width: 1.0;" width="10" x="210" y="722.8438"/><line style="stroke: #A80036; stroke-width: 1.0;" x1="210" x2="210" y1="722.8438" y2="844.25"/><line style="stroke: #A80036; stroke-width: 1.0;" x1="220" x2="220" y1="722.8438" y2="844.25"/><rect fill="#FFFFFF" filter="url(#f1p1ttfyqklrtz)" height="104.0547" style="stroke: #FFFFFF; stroke-width: 1.0;" width="10" x="210" y="872.25"/><line style="stroke: #A80036; stroke-width: 1.0;" x1="210" x2="210" y1="872.25" y2="976.3047"/><line style="stroke: #A80036; stroke-width: 1.0;" x1="220" x2="220" y1="872.25" y2="976.3047"/><rect fill="#FFFFFF" filter="url(#f1p1ttfyqklrtz)" height="66.7031" style="stroke: #FFFFFF; stroke-width: 1.0;" width="10" x="210" y="1004.3047"/><line style="stroke: #A80036; stroke-width: 1.0;" x1="210" x2="210" y1="1004.3047" y2="1071.0078"/><line style="stroke: #A80036; stroke-width: 1.0;" x1="220" x2="220" y1="1004.3047" y2="1071.0078"/><line style="stroke: #A80036; stroke-width: 1.0;" x1="210" x2="220" y1="1071.0078" y2="1071.0078"/><rect fill="#FFFFFF" filter="url(#f1p1ttfyqklrtz)" height="8" style="stroke: #FFFFFF; stroke-width: 1.0;" width="10" x="426" y="149.9219"/><line style="stroke: #A80036; stroke-width: 1.0;" x1="426" x2="426" y1="149.9219" y2="157.9219"/><line style="stroke: #A80036; stroke-width: 1.0;" x1="436" x2="436" y1="149.9219" y2="157.9219"/><line style="stroke: #A80036; stroke-width: 1.0;" x1="426" x2="436" y1="149.9219" y2="149.9219"/><rect fill="#FFFFFF" filter="url(#f1p1ttfyqklrtz)" height="60.7031" style="stroke: #FFFFFF; stroke-width: 1.0;" width="10" x="426" y="185.9219"/><line style="stroke: #A80036; stroke-width: 1.0;" x1="426" x2="426" y1="185.9219" y2="246.625"/><line style="stroke: #A80036; stroke-width: 1.0;" x1="436" x2="436" y1="185.9219" y2="246.625"/><rect fill="#FFFFFF" filter="url(#f1p1ttfyqklrtz)" height="121.4063" style="stroke: #FFFFFF; stroke-width: 1.0;" width="10" x="426" y="274.625"/><line style="stroke: #A80036; stroke-width: 1.0;" x1="426" x2="426" y1="274.625" y2="396.0313"/><line style="stroke: #A80036; stroke-width: 1.0;" x1="436" x2="436" y1="274.625" y2="396.0313"/><rect fill="#FFFFFF" filter="url(#f1p1ttfyqklrtz)" height="121.4063" style="stroke: #FFFFFF; stroke-width: 1.0;" width="10" x="426" y="424.0313"/><line style="stroke: #A80036; stroke-width: 1.0;" x1="426" x2="426" y1="424.0313" y2="545.4375"/><line style="stroke: #A80036; stroke-width: 1.0;" x1="436" x2="436" y1="424.0313" y2="545.4375"/><rect fill="#FFFFFF" filter="url(#f1p1ttfyqklrtz)" height="121.4063" style="stroke: #FFFFFF; stroke-width: 1.0;" width="10" x="426" y="573.4375"/><line style="stroke: #A80036; stroke-width: 1.0;" x1="426" x2="426" y1="573.4375" y2="694.8438"/><line style="stroke: #A80036; stroke-width: 1.0;" x1="436" x2="436" y1="573.4375" y2="694.8438"/><rect fill="#FFFFFF" filter="url(#f1p1ttfyqklrtz)" height="121.4063" style="stroke: #FFFFFF; stroke-width: 1.0;" width="10" x="426" y="722.8438"/><line style="stroke: #A80036; stroke-width: 1.0;" x1="426" x2="426" y1="722.8438" y2="844.25"/><line style="stroke: #A80036; stroke-width: 1.0;" x1="436" x2="436" y1="722.8438" y2="844.25"/><rect fill="#FFFFFF" filter="url(#f1p1ttfyqklrtz)" height="104.0547" style="stroke: #FFFFFF; stroke-width: 1.0;" width="10" x="426" y="872.25"/><line style="stroke: #A80036; stroke-width: 1.0;" x1="426" x2="426" y1="872.25" y2="976.3047"/><line style="stroke: #A80036; stroke-width: 1.0;" x1="436" x2="436" y1="872.25" y2="976.3047"/><rect fill="#FFFFFF" filter="url(#f1p1ttfyqklrtz)" height="52.7031" style="stroke: #FFFFFF; stroke-width: 1.0;" width="10" x="426" y="1004.3047"/><line style="stroke: #A80036; stroke-width: 1.0;" x1="426" x2="426" y1="1004.3047" y2="1057.0078"/><line style="stroke: #A80036; stroke-width: 1.0;" x1="436" x2="436" y1="1004.3047" y2="1057.0078"/><line style="stroke: #A80036; stroke-width: 1.0;" x1="426" x2="436" y1="1057.0078" y2="1057.0078"/><line style="stroke: #A80036; stroke-width: 1.0;" x1="214.5" x2="214.5" y1="59.2188" y2="69.2188"/><line style="stroke: #A80036; stroke-width: 1.0; stroke-dasharray: 1.0,4.0;" x1="214.5" x2="214.5" y1="69.2188" y2="97.2188"/><line style="stroke: #A80036; stroke-width: 1.0;" x1="214.5" x2="214.5" y1="97.2188" y2="157.9219"/><line style="stroke: #A80036; stroke-width: 1.0; stroke-dasharray: 1.0,4.0;" x1="214.5" x2="214.5" y1="157.9219" y2="185.9219"/><line style="stroke: #A80036; stroke-width: 1.0;" x1="214.5" x2="214.5" y1="185.9219" y2="246.625"/><line style="stroke: #A80036; stroke-width: 1.0; stroke-dasharray: 1.0,4.0;" x1="214.5" x2="214.5" y1="246.625" y2="274.625"/><line style="stroke: #A80036; stroke-width: 1.0;" x1="214.5" x2="214.5" y1="274.625" y2="396.0313"/><line style="stroke: #A80036; stroke-width: 1.0; stroke-dasharray: 1.0,4.0;" x1="214.5" x2="214.5" y1="396.0313" y2="424.0313"/><line style="stroke: #A80036; stroke-width: 1.0;" x1="214.5" x2="214.5" y1="424.0313" y2="545.4375"/><line style="stroke: #A80036; stroke-width: 1.0; stroke-dasharray: 1.0,4.0;" x1="214.5" x2="214.5" y1="545.4375" y2="573.4375"/><line style="stroke: #A80036; stroke-width: 1.0;" x1="214.5" x2="214.5" y1="573.4375" y2="694.8438"/><line style="stroke: #A80036; stroke-width: 1.0; stroke-dasharray: 1.0,4.0;" x1="214.5" x2="214.5" y1="694.8438" y2="722.8438"/><line style="stroke: #A80036; stroke-width: 1.0;" x1="214.5" x2="214.5" y1="722.8438" y2="844.25"/><line style="stroke: #A80036; stroke-width: 1.0; stroke-dasharray: 1.0,4.0;" x1="214.5" x2="214.5" y1="844.25" y2="872.25"/><line style="stroke: #A80036; stroke-width: 1.0;" x1="214.5" x2="214.5" y1="872.25" y2="976.3047"/><line style="stroke: #A80036; stroke-width: 1.0; stroke-dasharray: 1.0,4.0;" x1="214.5" x2="214.5" y1="976.3047" y2="1004.3047"/><line style="stroke: #A80036; stroke-width: 1.0;" x1="214.5" x2="214.5" y1="1004.3047" y2="1089.0078"/><line style="stroke: #A80036; stroke-width: 1.0;" x1="430.5" x2="430.5" y1="59.2188" y2="69.2188"/><line style="stroke: #A80036; stroke-width: 1.0; stroke-dasharray: 1.0,4.0;" x1="430.5" x2="430.5" y1="69.2188" y2="97.2188"/><line style="stroke: #A80036; stroke-width: 1.0;" x1="430.5" x2="430.5" y1="97.2188" y2="157.9219"/><line style="stroke: #A80036; stroke-width: 1.0; stroke-dasharray: 1.0,4.0;" x1="430.5" x2="430.5" y1="157.9219" y2="185.9219"/><line style="stroke: #A80036; stroke-width: 1.0;" x1="430.5" x2="430.5" y1="185.9219" y2="246.625"/><line style="stroke: #A80036; stroke-width: 1.0; stroke-dasharray: 1.0,4.0;" x1="430.5" x2="430.5" y1="246.625" y2="274.625"/><line style="stroke: #A80036; stroke-width: 1.0;" x1="430.5" x2="430.5" y1="274.625" y2="396.0313"/><line style="stroke: #A80036; stroke-width: 1.0; stroke-dasharray: 1.0,4.0;" x1="430.5" x2="430.5" y1="396.0313" y2="424.0313"/><line style="stroke: #A80036; stroke-width: 1.0;" x1="430.5" x2="430.5" y1="424.0313" y2="545.4375"/><line style="stroke: #A80036; stroke-width: 1.0; stroke-dasharray: 1.0,4.0;" x1="430.5" x2="430.5" y1="545.4375" y2="573.4375"/><line style="stroke: #A80036; stroke-width: 1.0;" x1="430.5" x2="430.5" y1="573.4375" y2="694.8438"/><line style="stroke: #A80036; stroke-width: 1.0; stroke-dasharray: 1.0,4.0;" x1="430.5" x2="430.5" y1="694.8438" y2="722.8438"/><line style="stroke: #A80036; stroke-width: 1.0;" x1="430.5" x2="430.5" y1="722.8438" y2="844.25"/><line style="stroke: #A80036; stroke-width: 1.0; stroke-dasharray: 1.0,4.0;" x1="430.5" x2="430.5" y1="844.25" y2="872.25"/><line style="stroke: #A80036; stroke-width: 1.0;" x1="430.5" x2="430.5" y1="872.25" y2="976.3047"/><line style="stroke: #A80036; stroke-width: 1.0; stroke-dasharray: 1.0,4.0;" x1="430.5" x2="430.5" y1="976.3047" y2="1004.3047"/><line style="stroke: #A80036; stroke-width: 1.0;" x1="430.5" x2="430.5" y1="1004.3047" y2="1089.0078"/><rect fill="#FEFECE" filter="url(#f1p1ttfyqklrtz)" height="49.2188" style="stroke: #A80036; stroke-width: 1.5;" width="197" x="114.5" y="5"/><text fill="#000000" font-family="sans-serif" font-size="14" font-style="italic" lengthAdjust="spacingAndGlyphs" textLength="183" x="121.5" y="26.5332">«SingleSourceDataProvider»</text><text fill="#000000" font-family="sans-serif" font-size="14" lengthAdjust="spacingAndGlyphs" textLength="83" x="171.5" y="44.1426">DataProvider</text><rect fill="#FEFECE" filter="url(#f1p1ttfyqklrtz)" height="31.6094" style="stroke: #A80036; stroke-width: 1.5;" width="89" x="384.5" y="22.6094"/><text fill="#000000" font-family="sans-serif" font-size="14" lengthAdjust="spacingAndGlyphs" textLength="75" x="391.5" y="44.1426">DataSource</text><rect fill="#FFFFFF" filter="url(#f1p1ttfyqklrtz)" height="38.3516" style="stroke: #FFFFFF; stroke-width: 1.0;" width="10" x="210" y="119.5703"/><line style="stroke: #A80036; stroke-width: 1.0;" x1="210" x2="210" y1="119.5703" y2="157.9219"/><line style="stroke: #A80036; stroke-width: 1.0;" x1="220" x2="220" y1="119.5703" y2="157.9219"/><line style="stroke: #A80036; stroke-width: 1.0;" x1="210" x2="220" y1="119.5703" y2="119.5703"/><rect fill="#FFFFFF" filter="url(#f1p1ttfyqklrtz)" height="60.7031" style="stroke: #FFFFFF; stroke-width: 1.0;" width="10" x="210" y="185.9219"/><line style="stroke: #A80036; stroke-width: 1.0;" x1="210" x2="210" y1="185.9219" y2="246.625"/><line style="stroke: #A80036; stroke-width: 1.0;" x1="220" x2="220" y1="185.9219" y2="246.625"/><rect fill="#FFFFFF" filter="url(#f1p1ttfyqklrtz)" height="121.4063" style="stroke: #FFFFFF; stroke-width: 1.0;" width="10" x="210" y="274.625"/><line style="stroke: #A80036; stroke-width: 1.0;" x1="210" x2="210" y1="274.625" y2="396.0313"/><line style="stroke: #A80036; stroke-width: 1.0;" x1="220" x2="220" y1="274.625" y2="396.0313"/><rect fill="#FFFFFF" filter="url(#f1p1ttfyqklrtz)" height="121.4063" style="stroke: #FFFFFF; stroke-width: 1.0;" width="10" x="210" y="424.0313"/><line style="stroke: #A80036; stroke-width: 1.0;" x1="210" x2="210" y1="424.0313" y2="545.4375"/><line style="stroke: #A80036; stroke-width: 1.0;" x1="220" x2="220" y1="424.0313" y2="545.4375"/><rect fill="#FFFFFF" filter="url(#f1p1ttfyqklrtz)" height="121.4063" style="stroke: #FFFFFF; stroke-width: 1.0;" width="10" x="210" y="573.4375"/><line style="stroke: #A80036; stroke-width: 1.0;" x1="210" x2="210" y1="573.4375" y2="694.8438"/><line style="stroke: #A80036; stroke-width: 1.0;" x1="220" x2="220" y1="573.4375" y2="694.8438"/><rect fill="#FFFFFF" filter="url(#f1p1ttfyqklrtz)" height="121.4063" style="stroke: #FFFFFF; stroke-width: 1.0;" width="10" x="210" y="722.8438"/><line style="stroke: #A80036; stroke-width: 1.0;" x1="210" x2="210" y1="722.8438" y2="844.25"/><line style="stroke: #A80036; stroke-width: 1.0;" x1="220" x2="220" y1="722.8438" y2="844.25"/><rect fill="#FFFFFF" filter="url(#f1p1ttfyqklrtz)" height="104.0547" style="stroke: #FFFFFF; stroke-width: 1.0;" width="10" x="210" y="872.25"/><line style="stroke: #A80036; stroke-width: 1.0;" x1="210" x2="210" y1="872.25" y2="976.3047"/><line style="stroke: #A80036; stroke-width: 1.0;" x1="220" x2="220" y1="872.25" y2="976.3047"/><rect fill="#FFFFFF" filter="url(#f1p1ttfyqklrtz)" height="66.7031" style="stroke: #FFFFFF; stroke-width: 1.0;" width="10" x="210" y="1004.3047"/><line style="stroke: #A80036; stroke-width: 1.0;" x1="210" x2="210" y1="1004.3047" y2="1071.0078"/><line style="stroke: #A80036; stroke-width: 1.0;" x1="220" x2="220" y1="1004.3047" y2="1071.0078"/><line style="stroke: #A80036; stroke-width: 1.0;" x1="210" x2="220" y1="1071.0078" y2="1071.0078"/><rect fill="#FFFFFF" filter="url(#f1p1ttfyqklrtz)" height="8" style="stroke: #FFFFFF; stroke-width: 1.0;" width="10" x="426" y="149.9219"/><line style="stroke: #A80036; stroke-width: 1.0;" x1="426" x2="426" y1="149.9219" y2="157.9219"/><line style="stroke: #A80036; stroke-width: 1.0;" x1="436" x2="436" y1="149.9219" y2="157.9219"/><line style="stroke: #A80036; stroke-width: 1.0;" x1="426" x2="436" y1="149.9219" y2="149.9219"/><rect fill="#FFFFFF" filter="url(#f1p1ttfyqklrtz)" height="60.7031" style="stroke: #FFFFFF; stroke-width: 1.0;" width="10" x="426" y="185.9219"/><line style="stroke: #A80036; stroke-width: 1.0;" x1="426" x2="426" y1="185.9219" y2="246.625"/><line style="stroke: #A80036; stroke-width: 1.0;" x1="436" x2="436" y1="185.9219" y2="246.625"/><rect fill="#FFFFFF" filter="url(#f1p1ttfyqklrtz)" height="121.4063" style="stroke: #FFFFFF; stroke-width: 1.0;" width="10" x="426" y="274.625"/><line style="stroke: #A80036; stroke-width: 1.0;" x1="426" x2="426" y1="274.625" y2="396.0313"/><line style="stroke: #A80036; stroke-width: 1.0;" x1="436" x2="436" y1="274.625" y2="396.0313"/><rect fill="#FFFFFF" filter="url(#f1p1ttfyqklrtz)" height="121.4063" style="stroke: #FFFFFF; stroke-width: 1.0;" width="10" x="426" y="424.0313"/><line style="stroke: #A80036; stroke-width: 1.0;" x1="426" x2="426" y1="424.0313" y2="545.4375"/><line style="stroke: #A80036; stroke-width: 1.0;" x1="436" x2="436" y1="424.0313" y2="545.4375"/><rect fill="#FFFFFF" filter="url(#f1p1ttfyqklrtz)" height="121.4063" style="stroke: #FFFFFF; stroke-width: 1.0;" width="10" x="426" y="573.4375"/><line style="stroke: #A80036; stroke-width: 1.0;" x1="426" x2="426" y1="573.4375" y2="694.8438"/><line style="stroke: #A80036; stroke-width: 1.0;" x1="436" x2="436" y1="573.4375" y2="694.8438"/><rect fill="#FFFFFF" filter="url(#f1p1ttfyqklrtz)" height="121.4063" style="stroke: #FFFFFF; stroke-width: 1.0;" width="10" x="426" y="722.8438"/><line style="stroke: #A80036; stroke-width: 1.0;" x1="426" x2="426" y1="722.8438" y2="844.25"/><line style="stroke: #A80036; stroke-width: 1.0;" x1="436" x2="436" y1="722.8438" y2="844.25"/><rect fill="#FFFFFF" filter="url(#f1p1ttfyqklrtz)" height="104.0547" style="stroke: #FFFFFF; stroke-width: 1.0;" width="10" x="426" y="872.25"/><line style="stroke: #A80036; stroke-width: 1.0;" x1="426" x2="426" y1="872.25" y2="976.3047"/><line style="stroke: #A80036; stroke-width: 1.0;" x1="436" x2="436" y1="872.25" y2="976.3047"/><rect fill="#FFFFFF" filter="url(#f1p1ttfyqklrtz)" height="52.7031" style="stroke: #FFFFFF; stroke-width: 1.0;" width="10" x="426" y="1004.3047"/><line style="stroke: #A80036; stroke-width: 1.0;" x1="426" x2="426" y1="1004.3047" y2="1057.0078"/><line style="stroke: #A80036; stroke-width: 1.0;" x1="436" x2="436" y1="1004.3047" y2="1057.0078"/><line style="stroke: #A80036; stroke-width: 1.0;" x1="426" x2="436" y1="1057.0078" y2="1057.0078"/><polygon fill="#A80036" points="198,115.5703,208,119.5703,198,123.5703,202,119.5703" style="stroke: #A80036; stroke-width: 1.0;"/><line style="stroke: #A80036; stroke-width: 1.0;" x1="0" x2="204" y1="119.5703" y2="119.5703"/><text fill="#000000" font-family="sans-serif" font-size="13" lengthAdjust="spacingAndGlyphs" textLength="39" x="7" y="114.7139">Open()</text><polygon fill="#A80036" points="414,145.9219,424,149.9219,414,153.9219,418,149.9219" style="stroke: #A80036; stroke-width: 1.0;"/><line style="stroke: #A80036; stroke-width: 1.0;" x1="220" x2="420" y1="149.9219" y2="149.9219"/><text fill="#000000" font-family="sans-serif" font-size="13" lengthAdjust="spacingAndGlyphs" textLength="187" x="227" y="145.0654">ClipConfiguration = await Open()</text><polygon fill="#A80036" points="231,204.2734,221,208.2734,231,212.2734,227,208.2734" style="stroke: #A80036; stroke-width: 1.0;"/><line style="stroke: #A80036; stroke-width: 1.0; stroke-dasharray: 2.0,2.0;" x1="225" x2="425" y1="208.2734" y2="208.2734"/><text fill="#000000" font-family="sans-serif" font-size="13" lengthAdjust="spacingAndGlyphs" textLength="98" x="237" y="203.417">ClipConfiguration</text><polygon fill="#A80036" points="11,234.625,1,238.625,11,242.625,7,238.625" style="stroke: #A80036; stroke-width: 1.0;"/><line style="stroke: #A80036; stroke-width: 1.0; stroke-dasharray: 2.0,2.0;" x1="5" x2="209" y1="238.625" y2="238.625"/><text fill="#000000" font-family="sans-serif" font-size="13" lengthAdjust="spacingAndGlyphs" textLength="98" x="17" y="233.7686">ClipConfiguration</text><polygon fill="#A80036" points="198,292.9766,208,296.9766,198,300.9766,202,296.9766" style="stroke: #A80036; stroke-width: 1.0;"/><line style="stroke: #A80036; stroke-width: 1.0;" x1="0" x2="204" y1="296.9766" y2="296.9766"/><text fill="#000000" font-family="sans-serif" font-size="13" lengthAdjust="spacingAndGlyphs" textLength="191" x="7" y="292.1201">NextPacket( CancellationToken )</text><polygon fill="#A80036" points="414,323.3281,424,327.3281,414,331.3281,418,327.3281" style="stroke: #A80036; stroke-width: 1.0;"/><line style="stroke: #A80036; stroke-width: 1.0;" x1="220" x2="420" y1="327.3281" y2="327.3281"/><text fill="#000000" font-family="sans-serif" font-size="13" lengthAdjust="spacingAndGlyphs" textLength="76" x="227" y="322.4717">NextPacket()</text><polygon fill="#A80036" points="231,353.6797,221,357.6797,231,361.6797,227,357.6797" style="stroke: #A80036; stroke-width: 1.0;"/><line style="stroke: #A80036; stroke-width: 1.0; stroke-dasharray: 2.0,2.0;" x1="225" x2="425" y1="357.6797" y2="357.6797"/><text fill="#000000" font-family="sans-serif" font-size="13" lengthAdjust="spacingAndGlyphs" textLength="86" x="237" y="352.8232">Task&lt;Packet&gt;</text><polygon fill="#A80036" points="11,384.0313,1,388.0313,11,392.0313,7,388.0313" style="stroke: #A80036; stroke-width: 1.0;"/><line style="stroke: #A80036; stroke-width: 1.0; stroke-dasharray: 2.0,2.0;" x1="5" x2="209" y1="388.0313" y2="388.0313"/><text fill="#000000" font-family="sans-serif" font-size="13" lengthAdjust="spacingAndGlyphs" textLength="86" x="17" y="383.1748">Task&lt;Packet&gt;</text><polygon fill="#A80036" points="198,442.3828,208,446.3828,198,450.3828,202,446.3828" style="stroke: #A80036; stroke-width: 1.0;"/><line style="stroke: #A80036; stroke-width: 1.0;" x1="0" x2="204" y1="446.3828" y2="446.3828"/><text fill="#000000" font-family="sans-serif" font-size="13" lengthAdjust="spacingAndGlyphs" textLength="105" x="7" y="441.5264">Seek( TimeSpan )</text><polygon fill="#A80036" points="414,472.7344,424,476.7344,414,480.7344,418,476.7344" style="stroke: #A80036; stroke-width: 1.0;"/><line style="stroke: #A80036; stroke-width: 1.0;" x1="220" x2="420" y1="476.7344" y2="476.7344"/><text fill="#000000" font-family="sans-serif" font-size="13" lengthAdjust="spacingAndGlyphs" textLength="105" x="227" y="471.8779">Seek( TimeSpan )</text><polygon fill="#A80036" points="231,503.0859,221,507.0859,231,511.0859,227,507.0859" style="stroke: #A80036; stroke-width: 1.0;"/><line style="stroke: #A80036; stroke-width: 1.0; stroke-dasharray: 2.0,2.0;" x1="225" x2="425" y1="507.0859" y2="507.0859"/><text fill="#000000" font-family="sans-serif" font-size="13" lengthAdjust="spacingAndGlyphs" textLength="104" x="237" y="502.2295">Task&lt;TimeSpan&gt;</text><polygon fill="#A80036" points="11,533.4375,1,537.4375,11,541.4375,7,537.4375" style="stroke: #A80036; stroke-width: 1.0;"/><line style="stroke: #A80036; stroke-width: 1.0; stroke-dasharray: 2.0,2.0;" x1="5" x2="209" y1="537.4375" y2="537.4375"/><text fill="#000000" font-family="sans-serif" font-size="13" lengthAdjust="spacingAndGlyphs" textLength="104" x="17" y="532.5811">Task&lt;TimeSpan&gt;</text><polygon fill="#A80036" points="198,591.7891,208,595.7891,198,599.7891,202,595.7891" style="stroke: #A80036; stroke-width: 1.0;"/><line style="stroke: #A80036; stroke-width: 1.0;" x1="0" x2="204" y1="595.7891" y2="595.7891"/><text fill="#000000" font-family="sans-serif" font-size="13" lengthAdjust="spacingAndGlyphs" textLength="59" x="7" y="590.9326">Suspend()</text><polygon fill="#A80036" points="414,622.1406,424,626.1406,414,630.1406,418,626.1406" style="stroke: #A80036; stroke-width: 1.0;"/><line style="stroke: #A80036; stroke-width: 1.0;" x1="220" x2="420" y1="626.1406" y2="626.1406"/><text fill="#000000" font-family="sans-serif" font-size="13" lengthAdjust="spacingAndGlyphs" textLength="59" x="227" y="621.2842">Suspend()</text><polygon fill="#A80036" points="231,652.4922,221,656.4922,231,660.4922,227,656.4922" style="stroke: #A80036; stroke-width: 1.0;"/><line style="stroke: #A80036; stroke-width: 1.0; stroke-dasharray: 2.0,2.0;" x1="225" x2="425" y1="656.4922" y2="656.4922"/><text fill="#000000" font-family="sans-serif" font-size="13" lengthAdjust="spacingAndGlyphs" textLength="69" x="237" y="651.6357">Task&lt;bool&gt;</text><polygon fill="#A80036" points="11,682.8438,1,686.8438,11,690.8438,7,686.8438" style="stroke: #A80036; stroke-width: 1.0;"/><line style="stroke: #A80036; stroke-width: 1.0; stroke-dasharray: 2.0,2.0;" x1="5" x2="209" y1="686.8438" y2="686.8438"/><text fill="#000000" font-family="sans-serif" font-size="13" lengthAdjust="spacingAndGlyphs" textLength="69" x="17" y="681.9873">Task&lt;bool&gt;</text><polygon fill="#A80036" points="198,741.1953,208,745.1953,198,749.1953,202,745.1953" style="stroke: #A80036; stroke-width: 1.0;"/><line style="stroke: #A80036; stroke-width: 1.0;" x1="0" x2="204" y1="745.1953" y2="745.1953"/><text fill="#000000" font-family="sans-serif" font-size="13" lengthAdjust="spacingAndGlyphs" textLength="56" x="7" y="740.3389">Resume()</text><polygon fill="#A80036" points="414,771.5469,424,775.5469,414,779.5469,418,775.5469" style="stroke: #A80036; stroke-width: 1.0;"/><line style="stroke: #A80036; stroke-width: 1.0;" x1="220" x2="420" y1="775.5469" y2="775.5469"/><text fill="#000000" font-family="sans-serif" font-size="13" lengthAdjust="spacingAndGlyphs" textLength="56" x="227" y="770.6904">Resume()</text><polygon fill="#A80036" points="231,801.8984,221,805.8984,231,809.8984,227,805.8984" style="stroke: #A80036; stroke-width: 1.0;"/><line style="stroke: #A80036; stroke-width: 1.0; stroke-dasharray: 2.0,2.0;" x1="225" x2="425" y1="805.8984" y2="805.8984"/><text fill="#000000" font-family="sans-serif" font-size="13" lengthAdjust="spacingAndGlyphs" textLength="69" x="237" y="801.042">Task&lt;bool&gt;</text><polygon fill="#A80036" points="11,832.25,1,836.25,11,840.25,7,836.25" style="stroke: #A80036; stroke-width: 1.0;"/><line style="stroke: #A80036; stroke-width: 1.0; stroke-dasharray: 2.0,2.0;" x1="5" x2="209" y1="836.25" y2="836.25"/><text fill="#000000" font-family="sans-serif" font-size="13" lengthAdjust="spacingAndGlyphs" textLength="69" x="17" y="831.3936">Task&lt;bool&gt;</text><polygon fill="#A80036" points="198,890.6016,208,894.6016,198,898.6016,202,894.6016" style="stroke: #A80036; stroke-width: 1.0;"/><line style="stroke: #A80036; stroke-width: 1.0;" x1="0" x2="204" y1="894.6016" y2="894.6016"/><text fill="#000000" font-family="sans-serif" font-size="13" lengthAdjust="spacingAndGlyphs" textLength="115" x="7" y="889.7451">Add( DataSource[] )</text><line style="stroke: #A80036; stroke-width: 1.0;" x1="220" x2="262" y1="924.9531" y2="924.9531"/><line style="stroke: #A80036; stroke-width: 1.0;" x1="262" x2="262" y1="924.9531" y2="937.9531"/><line style="stroke: #A80036; stroke-width: 1.0;" x1="221" x2="262" y1="937.9531" y2="937.9531"/><polygon fill="#A80036" points="231,933.9531,221,937.9531,231,941.9531,227,937.9531" style="stroke: #A80036; stroke-width: 1.0;"/><text fill="#000000" font-family="sans-serif" font-size="13" lengthAdjust="spacingAndGlyphs" textLength="172" x="227" y="920.0967">_dataSource = DataSource[0]</text><polygon fill="#A80036" points="11,964.3047,1,968.3047,11,972.3047,7,968.3047" style="stroke: #A80036; stroke-width: 1.0;"/><line style="stroke: #A80036; stroke-width: 1.0; stroke-dasharray: 2.0,2.0;" x1="5" x2="209" y1="968.3047" y2="968.3047"/><text fill="#000000" font-family="sans-serif" font-size="13" lengthAdjust="spacingAndGlyphs" textLength="75" x="17" y="963.4482">DataProvider</text><polygon fill="#A80036" points="198,1022.6563,208,1026.6563,198,1030.6563,202,1026.6563" style="stroke: #A80036; stroke-width: 1.0;"/><line style="stroke: #A80036; stroke-width: 1.0;" x1="0" x2="204" y1="1026.6563" y2="1026.6563"/><text fill="#000000" font-family="sans-serif" font-size="13" lengthAdjust="spacingAndGlyphs" textLength="55" x="7" y="1021.7998">Dispose()</text><polygon fill="#A80036" points="419,1053.0078,429,1057.0078,419,1061.0078,423,1057.0078" style="stroke: #A80036; stroke-width: 1.0;"/><line style="stroke: #A80036; stroke-width: 1.0;" x1="220" x2="425" y1="1057.0078" y2="1057.0078"/><text fill="#000000" font-family="sans-serif" font-size="13" lengthAdjust="spacingAndGlyphs" textLength="55" x="227" y="1052.1514">Dispose()</text><line style="stroke: #A80036; stroke-width: 2.0;" x1="422" x2="440" y1="1048.0078" y2="1066.0078"/><line style="stroke: #A80036; stroke-width: 2.0;" x1="422" x2="440" y1="1066.0078" y2="1048.0078"/><polygon fill="#A80036" points="11,1067.0078,1,1071.0078,11,1075.0078,7,1071.0078" style="stroke: #A80036; stroke-width: 1.0;"/><line style="stroke: #A80036; stroke-width: 1.0; stroke-dasharray: 2.0,2.0;" x1="5" x2="214" y1="1071.0078" y2="1071.0078"/><line style="stroke: #A80036; stroke-width: 2.0;" x1="206" x2="224" y1="1062.0078" y2="1080.0078"/><line style="stroke: #A80036; stroke-width: 2.0;" x1="206" x2="224" y1="1080.0078" y2="1062.0078"/><!--MD5=[4216ab0e7315489699efa8e5b9ca43b2]
@startuml SingleSourceDataProvider
hide footbox

participant DataProvider <<SingleSourceDataProvider>>
participant DataSource

...
[-> DataProvider : Open()
activate DataProvider
DataProvider -> DataSource : ClipConfiguration = await Open()
activate DataSource
...
DataProvider <- - DataSource : ClipConfiguration
[<- - DataProvider : ClipConfiguration

...
[-> DataProvider : NextPacket( CancellationToken )
DataProvider -> DataSource : NextPacket()
DataProvider <- - DataSource : Task<Packet>
[<- - DataProvider : Task<Packet>

...
[-> DataProvider : Seek( TimeSpan )
DataProvider -> DataSource : Seek( TimeSpan )
DataProvider <- - DataSource : Task<TimeSpan>
[<- - DataProvider : Task<TimeSpan>

...
[-> DataProvider : Suspend()
DataProvider -> DataSource : Suspend()
DataProvider <- - DataSource : Task<bool>
[<- - DataProvider : Task<bool>

...
[-> DataProvider : Resume()
DataProvider -> DataSource : Resume()
DataProvider <- - DataSource : Task<bool>
[<- - DataProvider : Task<bool>

...
[-> DataProvider : Add( DataSource[] )
DataProvider -> DataProvider : _dataSource = DataSource[0]
[<- - DataProvider : DataProvider

...
[-> DataProvider : Dispose()
DataProvider -> DataSource : Dispose()
destroy DataSource
[<- - DataProvider
destroy DataProvider
@enduml

PlantUML version 1.2020.20(Sat Nov 21 11:02:45 CET 2020)
(GPL source distribution)
Java Runtime: OpenJDK Runtime Environment
JVM: OpenJDK 64-Bit Server VM
Default Encoding: Cp1250
Language: en
Country: GB
--></g></svg>